<svg width="39" height="39" viewBox="0 0 39 39" fill="none" xmlns="http://www.w3.org/2000/svg">
<path d="M30.4459 13.067C30.377 12.6277 30.1535 12.2276 29.8157 11.9386C29.4779 11.6496 29.048 11.4908 28.6034 11.4907H10.3459C9.90134 11.4908 9.47141 11.6496 9.13359 11.9386C8.79577 12.2276 8.57229 12.6277 8.50343 13.067L5.02081 32.728C5.02079 33.2178 5.11725 33.7028 5.30469 34.1553C5.49213 34.6079 5.76686 35.0191 6.11322 35.3654C6.45957 35.7118 6.87075 35.9865 7.32329 36.1739C7.77582 36.3614 8.26085 36.4578 8.75066 36.4578H30.1986C30.6884 36.4578 31.1735 36.3614 31.626 36.1739C32.0785 35.9865 32.4897 35.7118 32.8361 35.3654C33.1824 35.0191 33.4572 34.6079 33.6446 34.1553C33.832 33.7028 33.9285 33.2178 33.9285 32.728L30.4459 13.067Z" fill="#883940"/>
<path d="M7.303 32.728L10.7856 13.067C10.8545 12.6277 11.078 12.2276 11.4158 11.9386C11.7536 11.6496 12.1835 11.4908 12.6281 11.4907H10.3459C9.90134 11.4908 9.47141 11.6496 9.13359 11.9386C8.79577 12.2276 8.57229 12.6277 8.50343 13.067L5.02081 32.728C5.02079 33.2178 5.11725 33.7028 5.30469 34.1553C5.49213 34.6079 5.76686 35.0191 6.11322 35.3654C6.45957 35.7118 6.87075 35.9865 7.32329 36.1739C7.77582 36.3614 8.26085 36.4578 8.75066 36.4578H11.0328C10.543 36.4578 10.058 36.3614 9.60547 36.1739C9.15294 35.9865 8.74175 35.7118 8.3954 35.3654C8.04905 35.0191 7.77431 34.6079 7.58687 34.1553C7.39944 33.7028 7.30298 33.2178 7.303 32.728Z" fill="#640A1C"/>
<path d="M25.6387 16.0154C25.5176 16.0154 25.4015 15.9674 25.3159 15.8818C25.2303 15.7962 25.1822 15.6801 25.1822 15.559V8.65525C25.1822 7.14151 24.5809 5.68976 23.5105 4.61938C22.4401 3.549 20.9884 2.94766 19.4747 2.94766C17.9609 2.94766 16.5092 3.549 15.4388 4.61938C14.3684 5.68976 13.7671 7.14151 13.7671 8.65525V15.559C13.7671 15.6801 13.719 15.7962 13.6334 15.8818C13.5478 15.9674 13.4317 16.0154 13.3106 16.0154C13.1896 16.0154 13.0735 15.9674 12.9879 15.8818C12.9023 15.7962 12.8542 15.6801 12.8542 15.559V8.65525C12.8542 6.8994 13.5517 5.21546 14.7933 3.97388C16.0349 2.7323 17.7188 2.03479 19.4747 2.03479C21.2305 2.03479 22.9144 2.7323 24.156 3.97388C25.3976 5.21546 26.0951 6.8994 26.0951 8.65525V15.559C26.0951 15.6801 26.047 15.7962 25.9614 15.8818C25.8758 15.9674 25.7597 16.0154 25.6387 16.0154Z" fill="#7C121D"/>
</svg>
