<svg xmlns="http://www.w3.org/2000/svg" width="39" height="39" viewBox="0 0 39 39" fill="none"><path d="M30.4 13.1C30.4 12.6 30.2 12.2 29.8 11.9 29.5 11.6 29 11.5 28.6 11.5H10.3C9.9 11.5 9.5 11.6 9.1 11.9 8.8 12.2 8.6 12.6 8.5 13.1L5 32.7C5 33.2 5.1 33.7 5.3 34.2 5.5 34.6 5.8 35 6.1 35.4 6.5 35.7 6.9 36 7.3 36.2 7.8 36.4 8.3 36.5 8.8 36.5H30.2C30.7 36.5 31.2 36.4 31.6 36.2 32.1 36 32.5 35.7 32.8 35.4 33.2 35 33.5 34.6 33.6 34.2 33.8 33.7 33.9 33.2 33.9 32.7L30.4 13.1Z" fill="#883940"/><path d="M7.3 32.7L10.8 13.1C10.9 12.6 11.1 12.2 11.4 11.9 11.8 11.6 12.2 11.5 12.6 11.5H10.3C9.9 11.5 9.5 11.6 9.1 11.9 8.8 12.2 8.6 12.6 8.5 13.1L5 32.7C5 33.2 5.1 33.7 5.3 34.2 5.5 34.6 5.8 35 6.1 35.4 6.5 35.7 6.9 36 7.3 36.2 7.8 36.4 8.3 36.5 8.8 36.5H11C10.5 36.5 10.1 36.4 9.6 36.2 9.2 36 8.7 35.7 8.4 35.4 8 35 7.8 34.6 7.6 34.2 7.4 33.7 7.3 33.2 7.3 32.7Z" fill="#640A1C"/><path d="M25.6 16C25.5 16 25.4 16 25.3 15.9 25.2 15.8 25.2 15.7 25.2 15.6V8.7C25.2 7.1 24.6 5.7 23.5 4.6 22.4 3.5 21 2.9 19.5 2.9 18 2.9 16.5 3.5 15.4 4.6 14.4 5.7 13.8 7.1 13.8 8.7V15.6C13.8 15.7 13.7 15.8 13.6 15.9 13.5 16 13.4 16 13.3 16 13.2 16 13.1 16 13 15.9 12.9 15.8 12.9 15.7 12.9 15.6V8.7C12.9 6.9 13.6 5.2 14.8 4 16 2.7 17.7 2 19.5 2 21.2 2 22.9 2.7 24.2 4 25.4 5.2 26.1 6.9 26.1 8.7V15.6C26.1 15.7 26 15.8 26 15.9 25.9 16 25.8 16 25.6 16Z" fill="#7C121D"/></svg>