<svg xmlns="http://www.w3.org/2000/svg" width="34" height="34" viewBox="0 0 34 34" fill="none"><path d="M27.4 3.5H6.6C4.9 3.5 3.5 4.9 3.5 6.6V27.3C3.5 29.1 4.9 30.5 6.6 30.5H27.3C29.1 30.5 30.5 29.1 30.5 27.3V6.6C30.5 4.9 29.1 3.5 27.4 3.5ZM28.4 27.4C28.4 27.9 27.9 28.4 27.4 28.4H21.3V19.8H24.6L25.1 16.5H21.3V14.2C21.3 13.4 22 12.6 22.9 12.6H25.1V9.4H22.9C20.2 9.4 18.1 11.6 18.1 14.2V16.5H14.9V19.8H18.1V28.4H6.6C6.1 28.4 5.6 27.9 5.6 27.3V6.6C5.6 6.1 6.1 5.6 6.6 5.6H27.3C27.9 5.6 28.4 6.1 28.4 6.6V27.4H28.4Z" style="fill-opacity:0.5;fill:#883940"/></svg>