<svg xmlns="http://www.w3.org/2000/svg" width="34" height="34" viewBox="0 0 34 34" fill="none"><path d="M17 3.5C13.3 3.5 12.8 3.5 11.4 3.5 10 3.6 9 3.8 8.1 4.1 7.2 4.5 6.5 4.9 5.7 5.7 5 6.4 4.5 7.2 4.1 8.1 3.8 9 3.6 9.9 3.5 11.4 3.4 12.8 3.4 13.3 3.4 17 3.4 20.7 3.4 21.1 3.5 22.6 3.6 24 3.8 25 4.1 25.9 4.5 26.7 5 27.5 5.7 28.3 6.5 29 7.2 29.5 8.1 29.8 9 30.2 10 30.4 11.4 30.5 12.8 30.5 13.3 30.5 17 30.5 20.7 30.5 21.1 30.5 22.6 30.5 24 30.4 25 30.2 25.9 29.8 26.7 29.5 27.5 29 28.3 28.3 29 27.5 29.5 26.8 29.8 25.9 30.2 25 30.4 24 30.5 22.6 30.6 21.1 30.6 20.7 30.6 17 30.6 13.3 30.6 12.8 30.5 11.4 30.4 10 30.2 9 29.8 8.1 29.5 7.2 29 6.5 28.3 5.7 27.5 4.9 26.8 4.5 25.9 4.1 25 3.8 24 3.6 22.6 3.5 21.1 3.5 20.7 3.5 17 3.5ZM17 5.9C20.6 5.9 21 5.9 22.5 6 23.8 6 24.5 6.2 25 6.4 25.6 6.7 26.1 7 26.5 7.5 27 7.9 27.3 8.4 27.6 9 27.7 9.5 28 10.2 28 11.5 28.1 13 28.1 13.4 28.1 17 28.1 20.6 28.1 21.1 28 22.5 28 23.8 27.8 24.5 27.6 25 27.3 25.7 27 26.1 26.5 26.6 26.1 27 25.6 27.4 25 27.6 24.5 27.8 23.8 28 22.5 28.1 21 28.1 20.6 28.1 17 28.1 13.4 28.1 12.9 28.1 11.5 28.1 10.2 28 9.5 27.8 9 27.6 8.4 27.4 7.9 27 7.4 26.6 7 26.1 6.7 25.7 6.4 25 6.2 24.5 6 23.8 5.9 22.5 5.9 21.1 5.9 20.6 5.9 17 5.9 13.4 5.9 13 5.9 11.5 6 10.2 6.2 9.5 6.4 9 6.7 8.4 7 7.9 7.4 7.5 7.9 7 8.4 6.7 9 6.4 9.5 6.3 10.2 6 11.5 6 12.9 5.9 13.4 5.9 17 5.9ZM24.2 8.1C23.3 8.1 22.6 8.9 22.6 9.8 22.6 10.7 23.3 11.4 24.2 11.4 25.1 11.4 25.9 10.7 25.9 9.8 25.9 8.9 25.1 8.1 24.2 8.1ZM17 10C13.1 10 10.1 13.2 10.1 17 10.1 20.9 13.2 24 17 24 20.8 24 24 20.8 24 17 24 13.2 20.8 10 17 10ZM17 12.5C19.5 12.5 21.5 14.5 21.5 17 21.5 19.5 19.5 21.5 17 21.5 14.5 21.5 12.5 19.5 12.5 17 12.5 14.5 14.5 12.5 17 12.5Z" style="fill-opacity:0.5;fill:#883940"/></svg>
 