<svg width="36" height="37" viewBox="0 0 36 37" fill="none" xmlns="http://www.w3.org/2000/svg">
<g clip-path="url(#clip0)">
<path d="M35.5471 18.4746C35.5471 27.9795 27.8419 35.6847 18.337 35.6847C8.83209 35.6847 1.12685 27.9795 1.12685 18.4746C1.12685 8.96967 8.83209 1.26442 18.337 1.26442C27.8419 1.26442 35.5471 8.96967 35.5471 18.4746Z" stroke="#883940" stroke-opacity="0.5" stroke-width="0.905797"/>
<path d="M22.38 19.6891C24.3479 18.379 25.6458 16.1431 25.6458 13.6021C25.6458 9.56575 22.3733 6.29321 18.337 6.29321C14.3007 6.29321 11.0281 9.56575 11.0281 13.6021C11.0281 16.1431 12.326 18.379 14.294 19.6891C9.5834 21.1089 5.91619 24.932 4.7352 29.7418L4.73581 29.7424C4.92827 29.9745 5.12805 30.2011 5.33209 30.4234C5.38142 30.4776 5.43319 30.5294 5.48375 30.5823C5.64089 30.7492 5.79985 30.9137 5.96309 31.0745C6.03069 31.1409 6.09952 31.2048 6.16834 31.27C6.31939 31.4137 6.47227 31.5556 6.62819 31.6939C6.70554 31.7621 6.78411 31.8297 6.86207 31.8967C7.01495 32.0277 7.16965 32.1562 7.3274 32.2816C7.41024 32.348 7.49368 32.4132 7.57712 32.4784C7.7367 32.6014 7.89871 32.7208 8.06255 32.8377C8.14721 32.898 8.23065 32.9595 8.31653 33.0186C8.48951 33.138 8.66553 33.2525 8.84277 33.3658C8.92256 33.4163 9.00052 33.4687 9.08092 33.5187C9.28557 33.6447 9.49387 33.7653 9.704 33.8835C9.75942 33.9146 9.81363 33.9481 9.86966 33.9785C10.1413 34.1271 10.4172 34.2697 10.6974 34.4043C10.7041 34.4073 10.7114 34.4103 10.7181 34.4134C10.9855 34.5413 11.2571 34.6625 11.5318 34.777C11.6171 34.8129 11.7042 34.8446 11.7901 34.8787C11.9886 34.9579 12.1872 35.0359 12.3894 35.1077C12.4966 35.1461 12.605 35.1808 12.7128 35.2174C12.8967 35.2795 13.0819 35.3398 13.2683 35.3952C13.3864 35.4305 13.5052 35.4634 13.6246 35.4963C13.8049 35.5463 13.9864 35.5938 14.1697 35.6382C14.2933 35.6681 14.4176 35.6967 14.5425 35.7241C14.7258 35.7643 14.9097 35.8009 15.0949 35.835C15.2203 35.8581 15.3452 35.8819 15.4719 35.902C15.6631 35.933 15.8556 35.9592 16.0487 35.9842C16.1705 36 16.2917 36.0177 16.4141 36.0305C16.6273 36.0536 16.8423 36.0701 17.0573 36.0853C17.1615 36.0926 17.2644 36.1036 17.3685 36.109C17.6895 36.1273 18.0117 36.1377 18.337 36.1377C18.6622 36.1377 18.9844 36.1273 19.3054 36.1103C19.4095 36.1048 19.5131 36.0938 19.6166 36.0865C19.8322 36.0713 20.0472 36.0548 20.2598 36.0317C20.3822 36.0183 20.5034 36.0012 20.6252 35.9854C20.8183 35.9604 21.0108 35.9342 21.202 35.9032C21.3281 35.8825 21.4536 35.8593 21.579 35.8362C21.7642 35.8021 21.9488 35.7655 22.1315 35.7253C22.2563 35.6979 22.3806 35.6693 22.5042 35.6395C22.6869 35.595 22.8684 35.5475 23.0493 35.4975C23.1681 35.4646 23.2875 35.4318 23.4056 35.3964C23.5926 35.3404 23.7772 35.2801 23.9611 35.2186C24.0689 35.182 24.1779 35.1473 24.2845 35.109C24.4861 35.0365 24.6853 34.9591 24.8839 34.8799C24.9697 34.8458 25.0568 34.8136 25.1421 34.7782C25.4156 34.6637 25.686 34.5437 25.9522 34.4158C25.9601 34.4122 25.9686 34.4085 25.9765 34.4049C26.2567 34.2703 26.5326 34.1277 26.8043 33.9791C26.8603 33.9487 26.9145 33.9152 26.9699 33.8841C27.1801 33.766 27.3884 33.6454 27.593 33.5193C27.6734 33.4699 27.752 33.4176 27.8312 33.3664C28.0084 33.2531 28.1844 33.138 28.3574 33.0192C28.4427 32.9602 28.5267 32.8992 28.6114 32.8383C28.7752 32.7208 28.9372 32.6014 29.0968 32.479C29.1809 32.4144 29.2637 32.3486 29.3465 32.2823C29.5037 32.1568 29.659 32.0283 29.8119 31.8973C29.8904 31.8303 29.969 31.7627 30.0457 31.6945C30.2017 31.5562 30.3545 31.4143 30.5056 31.2706C30.5738 31.2054 30.6432 31.1409 30.7108 31.0751C30.8741 30.9143 31.0336 30.7498 31.1902 30.5829C31.2401 30.5294 31.2919 30.4776 31.3418 30.424C31.5459 30.2017 31.7457 29.9751 31.9381 29.743L31.9387 29.7424C30.7583 24.932 27.0905 21.1089 22.38 19.6891Z" fill="#883940"/>
</g>
<defs>
<clipPath id="clip0">
<rect width="35.3261" height="35.3261" fill="white" transform="translate(0.67395 0.811523)"/>
</clipPath>
</defs>
</svg>
